<svg xmlns="http://www.w3.org/2000/svg" viewBox="0 0 64 64" aria-labelledby="title"
aria-describedby="desc" role="img" xmlns:xlink="http://www.w3.org/1999/xlink">
  <title>Surprised Emoji</title>
  <desc>A color styled icon from Orion Icon Library.</desc>
  <circle data-name="layer3"
  cx="32" cy="32" r="30" fill="#fc6"></circle>
  <path data-name="opacity" d="M60 38a36.2 36.2 0 0 1-.5 6A30 30 0 0 0 32 2l-3.8.3A36 36 0 0 1 60 38z"
  fill="#fff" opacity=".2"></path>
  <path data-name="opacity" d="M8 28A29.9 29.9 0 0 1 18.5 5.2a30 30 0 1 0 33 49.6A30 30 0 0 1 8 28z"
  fill="#000064" opacity=".15"></path>
  <ellipse data-name="layer1" cx="32" cy="46" rx="5" ry="6" fill="#64738f"></ellipse>
  <path data-name="layer2" d="M32 52a4.8 4.8 0 0 0 4.1-2.5 4.5 4.5 0 0 0-8.1 0 4.8 4.8 0 0 0 4 2.5z"
  fill="#e26472"></path>
  <circle data-name="layer1" cx="22" cy="26" r="2" fill="#64738f"></circle>
  <circle data-name="layer1" cx="42" cy="26" r="2" fill="#64738f"></circle>
  <circle data-name="stroke" cx="32" cy="32" r="30" fill="none"
  stroke="#2e4369" stroke-linecap="round" stroke-linejoin="round" stroke-width="2"></circle>
  <circle data-name="stroke" cx="22" cy="26" r="2" fill="none"
  stroke="#2e4369" stroke-linecap="round" stroke-linejoin="round" stroke-width="2"></circle>
  <circle data-name="stroke" cx="42" cy="26" r="2" fill="none"
  stroke="#2e4369" stroke-linecap="round" stroke-linejoin="round" stroke-width="2"></circle>
  <ellipse data-name="stroke" cx="32" cy="46" rx="5" ry="6" fill="none"
  stroke="#2e4369" stroke-linecap="round" stroke-linejoin="round" stroke-width="2"></ellipse>
</svg>