<svg xmlns="http://www.w3.org/2000/svg" viewBox="0 0 64 64" aria-labelledby="title"
aria-describedby="desc" role="img" xmlns:xlink="http://www.w3.org/1999/xlink">
  <title>Pin</title>
  <desc>A color styled icon from Orion Icon Library.</desc>
  <path data-name="layer1"
  d="M32 2a20 20 0 0 0-20 20c0 18 20 40 20 40s20-22 20-40A20 20 0 0 0 32 2zm0 28a8 8 0 1 1 8-8 8 8 0 0 1-8 8z"
  fill="#f26161"></path>
  <path data-name="opacity" d="M15 19a19.9 19.9 0 0 1 4.4-12.6A20 20 0 0 0 12 22c0 18 20 40 20 40l2.8-3.3C32.5 56.2 15 35.8 15 19z"
  fill="#000032" opacity=".2"></path>
  <path data-name="opacity" d="M24 22a8 8 0 0 1 1.4-4.6 8 8 0 1 0 11.1 11.2A8 8 0 0 1 24 22z"
  fill="#fff" opacity=".25"></path>
  <path data-name="stroke" d="M32 2a20 20 0 0 0-20 20c0 18 20 40 20 40s20-22 20-40A20 20 0 0 0 32 2z"
  fill="none" stroke="#2e4369" stroke-linecap="round" stroke-linejoin="round"
  stroke-width="2"></path>
  <circle data-name="stroke" cx="32" cy="22" r="8" fill="none" stroke="#2e4369"
  stroke-linecap="round" stroke-linejoin="round" stroke-width="2"></circle>
</svg>