<svg xmlns="http://www.w3.org/2000/svg" viewBox="0 0 64 64" aria-labelledby="title"
aria-describedby="desc" role="img" xmlns:xlink="http://www.w3.org/1999/xlink">
  <title>Back</title>
  <desc>A color styled icon from Orion Icon Library.</desc>
  <path data-name="layer1"
  d="M43.998 14H7a3 3 0 0 0 0 6h36.998a12 12 0 1 1 0 24H13.672l7.363-6.795a3 3 0 0 0-4.07-4.41L2 47l14.965 14.205a3 3 0 1 0 4.07-4.41L13.672 50h30.326a18 18 0 1 0 0-36z"
  fill="#bacae9"></path>
  <path data-name="stroke" d="M43.998 14H7a3 3 0 0 0 0 6h36.998a12 12 0 1 1 0 24H13.672l7.363-6.795a3 3 0 0 0-4.07-4.41L2 47l14.965 14.205a3 3 0 1 0 4.07-4.41L13.672 50h30.326a18 18 0 1 0 0-36z"
  fill="none" stroke="#2e4369" stroke-linecap="round" stroke-linejoin="round"
  stroke-width="2"></path>
</svg>