<svg xmlns="http://www.w3.org/2000/svg" viewBox="0 0 64 64" aria-labelledby="title"
aria-describedby="desc" role="img" xmlns:xlink="http://www.w3.org/1999/xlink">
  <title>Profile Picture</title>
  <desc>A color styled icon from Orion Icon Library.</desc>
  <path data-name="layer3"
  fill="#b3c2de" d="M6 2h52v48H6z"></path>
  <path data-name="layer2" fill="#ffffff" d="M6 50h52v12H6z"></path>
  <path data-name="layer1" d="M50.7 50a9.3 9.3 0 0 0-7.4-7c-6.3-1.2-5.4-3.2-5.4-4.4v-.7c1.5-1.4 1.7-3.3 2.4-5.6 1.9 0 2.4-4 2.4-4.6s.1-3-1.9-3c4.2-11.4-6.9-16-15.3-10.1-3.4 0-3.7 5.1-2.5 10.1-2 0-1.9 2.4-1.9 3s.4 4.6 2.4 4.6c.6 2.3.8 4.2 2.3 5.6v.8c0 1.3.9 3.3-5.4 4.4a9.2 9.2 0 0 0-7.4 7"
  fill="#ffffff"></path>
  <path data-name="opacity" fill="#000064" opacity=".15" d="M11 59V2H6v60h52v-3H11z"></path>
  <path data-name="stroke" fill="none" stroke="#fafcff" stroke-linecap="round"
  stroke-linejoin="round" stroke-width="2" d="M6 2h52v60H6zm0 48h52"></path>
  <path data-name="stroke" d="M50.7 50a9.3 9.3 0 0 0-7.4-7c-6.3-1.2-5.4-3.2-5.4-4.4v-.7c1.5-1.4 1.7-3.3 2.4-5.6 1.9 0 2.4-4 2.4-4.6s.1-3-1.9-3c4.2-11.4-6.9-16-15.3-10.1-3.4 0-3.7 5.1-2.5 10.1-2 0-1.9 2.4-1.9 3s.4 4.6 2.4 4.6c.6 2.3.8 4.2 2.3 5.6v.8c0 1.3.9 3.3-5.4 4.4a9.2 9.2 0 0 0-7.4 7"
  fill="none" stroke="#fafcff" stroke-linecap="round" stroke-linejoin="round"
  stroke-width="2"></path>
</svg>