<svg xmlns="http://www.w3.org/2000/svg" viewBox="0 0 64 64" aria-labelledby="title"
aria-describedby="desc" role="img" xmlns:xlink="http://www.w3.org/1999/xlink">
  <title>Wrench</title>
  <desc>A color styled icon from Orion Icon Library.</desc>
  <path data-name="layer1"
  d="M61.949 12.739l-6.973 4.406a1.3 1.3 0 0 1-1.532-.1l-2.875-2.4A1.3 1.3 0 0 1 50.15 14l-.913-3.2a1.3 1.3 0 0 1 .606-1.49l7.967-4.563a11.738 11.738 0 0 0-19.2 10.428 4.011 4.011 0 0 1-1.1 3.363L18.544 37.514a3.98 3.98 0 0 1-3.339 1.1 11.542 11.542 0 0 0-1.466-.094A11.658 11.658 0 0 0 2.147 52.029l7.92-5a1.3 1.3 0 0 1 1.532.1l2.875 2.4a1.3 1.3 0 0 1 .419.644l.913 3.2a1.3 1.3 0 0 1-.606 1.49l-8.439 4.822a11.671 11.671 0 0 0 7.731 2.291A11.734 11.734 0 0 0 25.375 48.71a3.945 3.945 0 0 1 1.079-3.337l18.9-18.9a3.964 3.964 0 0 1 3.349-1.1A11.737 11.737 0 0 0 62 13.739c0-.339-.023-.669-.051-1z"
  fill="#7b8baf"></path>
  <path data-name="opacity" d="M11.6 47.126l1.684 1.4-.39-1.364a1.3 1.3 0 0 0-.419-.644L9.6 44.126a1.3 1.3 0 0 0-1.532-.1L2.3 47.672a11.143 11.143 0 0 0-.149 4.358l7.92-5a1.3 1.3 0 0 1 1.529.096zM47.843 6.318a1.3 1.3 0 0 0-.606 1.49L48.15 11a1.3 1.3 0 0 0 .419.644l1.191.993-.524-1.833a1.3 1.3 0 0 1 .606-1.49l7.967-4.563a11.748 11.748 0 0 0-3.623-2.07zm14.106 6.421l-2.513 1.588A11.734 11.734 0 0 1 46.7 22.374a3.964 3.964 0 0 0-3.349 1.1l-18.9 18.9a3.945 3.945 0 0 0-1.078 3.337 11.734 11.734 0 0 1-10.881 13.265 11.659 11.659 0 0 1-3.807-.393l-1.924 1.1a11.671 11.671 0 0 0 7.731 2.291A11.734 11.734 0 0 0 25.375 48.71a3.945 3.945 0 0 1 1.078-3.337l18.9-18.9a3.964 3.964 0 0 1 3.349-1.1A11.737 11.737 0 0 0 62 13.739c0-.339-.023-.669-.051-1z"
  fill="#000064" opacity=".2"></path>
  <path data-name="opacity" d="M48.843 7.318a1.3 1.3 0 0 0-.606 1.49L49.15 12a1.3 1.3 0 0 0 .419.644l.254.211-.586-2.052a1.3 1.3 0 0 1 .606-1.49L57.81 4.75a11.8 11.8 0 0 0-2.072-1.386zM11.6 47.126l2.62 2.184-.327-1.145a1.3 1.3 0 0 0-.419-.644l-2.875-2.4a1.3 1.3 0 0 0-1.532-.1L2.04 49.465c-.018.264-.04.527-.04.8a11.77 11.77 0 0 0 .147 1.768l7.92-5a1.3 1.3 0 0 1 1.533.093z"
  fill="#000064" opacity=".2"></path>
  <path data-name="stroke" d="M61.949 12.739l-6.973 4.406a1.3 1.3 0 0 1-1.532-.1l-2.875-2.4A1.3 1.3 0 0 1 50.15 14l-.913-3.2a1.3 1.3 0 0 1 .606-1.49l7.967-4.563a11.738 11.738 0 0 0-19.2 10.428 4.011 4.011 0 0 1-1.1 3.363L18.544 37.514a3.98 3.98 0 0 1-3.339 1.1 11.542 11.542 0 0 0-1.466-.094A11.658 11.658 0 0 0 2.147 52.029l7.92-5a1.3 1.3 0 0 1 1.532.1l2.875 2.4a1.3 1.3 0 0 1 .419.644l.913 3.2a1.3 1.3 0 0 1-.606 1.49l-8.439 4.822a11.671 11.671 0 0 0 7.731 2.291A11.734 11.734 0 0 0 25.375 48.71a3.945 3.945 0 0 1 1.079-3.337l18.9-18.9a3.964 3.964 0 0 1 3.349-1.1A11.737 11.737 0 0 0 62 13.739c0-.339-.023-.669-.051-1z"
  fill="none" stroke="#2e4369" stroke-linecap="round" stroke-miterlimit="10"
  stroke-width="2" stroke-linejoin="round"></path>
</svg>